<svg width="1921" height="263" viewBox="0 0 1921 263" fill="none" xmlns="http://www.w3.org/2000/svg">
<path d="M49.7298 142.8L93.4398 115.75C108.59 106.45 111.18 101.47 111.18 96.49C111.18 89.13 105.34 84.59 88.2398 84.59H44.9698V210.09H13.5898V56.47H96.8898C126.75 56.47 142.98 73.78 142.98 93.25C142.98 107.96 133.89 123.54 116.37 134.36L90.6198 150.16L102.09 164.44C125.03 193 138.87 208.36 152.94 217.02C163.54 223.51 174.58 226.54 191.89 226.54C213.09 226.54 299.59 206.47 314.09 201.06L309.61 225.5C303.34 227.88 214.18 252.51 188.86 252.51C168.09 252.51 151.86 248.83 137.15 239.31C119.62 228.06 101.45 207.5 75.2698 174.83L49.7398 142.81L49.7298 142.8Z" fill="black"/>
<path d="M209.02 63.94L210.05 63.8L210.45 63.05C209.96 63.34 209.49 63.64 209.02 63.94ZM267.11 63.05L267.51 63.8L268.54 63.94C268.07 63.64 267.6 63.34 267.11 63.05Z" fill="#DD46B1"/>
<path d="M331.76 72.37L268.54 63.94L267.51 63.8L267.11 63.05L238.78 10.3L210.45 63.05L210.05 63.8L209.02 63.94L145.81 72.37L192.29 114.01L181.32 172.81L238.78 145.05L296.24 172.81L285.27 114.01L331.76 72.37ZM238.78 122.25C224.93 122.25 217.79 112.94 217.79 100.18C217.79 87.42 224.93 78.11 238.78 78.11C252.63 78.11 259.77 87.41 259.77 100.18C259.77 112.95 252.63 122.25 238.78 122.25Z" fill="url(#paint0_linear_152_2)"/>
<path d="M456.46 195.16C443.69 205.55 426.17 213.34 403.02 213.34C354.12 213.34 323.83 177.42 323.83 133.28C323.83 89.14 354.12 53.22 403.02 53.22C421.84 53.22 439.37 58.85 452.14 69.23L435.26 92.81C430.48 89.27 418.53 81.48 402.8 82.21C379.11 83.31 353.73 103.43 353.19 132.31C352.64 161.95 378.6 182.78 402.8 184.34C421.43 185.54 435.31 175.08 439.58 171.57L456.46 195.15V195.16Z" fill="black"/>
<path d="M462.95 210.09V56.47H494.32V210.1H462.95V210.09ZM594.51 210.09H559.24L495.19 131.33L554.48 56.46H589.32L530.25 131.33L594.51 210.09Z" fill="black"/>
<path d="M652.93 171.14C661.59 175.68 688.63 186.5 717.19 186.5C751.59 186.5 761.11 170.7 761.11 156.86C761.11 113.8 668.29 126.14 668.29 66.63C668.29 34.61 695.34 19.89 725.2 19.89C751.38 19.89 778 31.14 778 58.4C778 65.76 776.05 71.6 769.78 80.69L746.41 69.44C748.36 66.19 749.01 63.38 749.01 61C749.01 50.4 735.81 46.07 725.86 46.07C714.83 46.07 697.51 51.48 697.51 65.98C697.51 99.52 791.42 88.7 791.42 154.48C791.42 187.15 768.05 213.33 716.77 213.33C689.51 213.33 665.92 205.97 652.94 199.91V171.13L652.93 171.14Z" fill="black"/>
<path d="M788.16 56.47V84.6H832.08V210.09H863.45V84.6H940.27L893.1 210.09H925.12L940.7 168.98H1002.59V210.09H1033.96V56.47H788.16ZM1002.59 140.85H951.09L972.29 84.6H1002.59V140.85Z" fill="black"/>
<path d="M1094.98 142.8L1138.69 115.75C1153.84 106.45 1156.43 101.47 1156.43 96.49C1156.43 89.13 1150.59 84.59 1133.49 84.59H1090.22V210.09H1058.85V56.47H1142.15C1172.01 56.47 1188.24 73.78 1188.24 93.25C1188.24 107.96 1179.15 123.54 1161.63 134.36L1135.88 150.16L1147.35 164.44C1170.29 193 1184.13 208.36 1198.2 217.02C1208.8 223.51 1219.84 226.54 1237.15 226.54C1258.35 226.54 1276.96 222 1291.46 216.59L1284.32 244.72C1278.05 247.1 1259.44 252.51 1234.12 252.51C1213.35 252.51 1197.12 248.83 1182.41 239.31C1164.88 228.06 1146.71 207.5 1120.53 174.83L1095 142.81L1094.98 142.8Z" fill="black"/>
<path d="M1193 56.47H1312.01V84.6H1268.3V210.1H1236.93V84.6H1193.01V56.47H1193Z" fill="black"/>
<path d="M1442.91 210.09V45.65H1362.85L1372.15 17.52H1545.03L1554.33 45.65H1474.27V210.09H1442.9H1442.91Z" fill="black"/>
<path d="M1627.47 195.16C1614.7 205.55 1597.18 213.34 1574.03 213.34C1525.13 213.34 1494.84 177.42 1494.84 133.28C1494.84 89.14 1525.13 53.22 1574.03 53.22C1592.85 53.22 1610.38 58.85 1623.15 69.23L1606.27 92.81C1601.41 89.2 1589.44 81.41 1573.81 82.21C1549.7 83.44 1523.84 104.74 1524.45 134.34C1525.04 162.97 1550.06 182.84 1573.81 184.33C1592.57 185.51 1606.46 174.97 1610.59 171.56L1627.47 195.14V195.16ZM1624.95 147.12H1550.71V118.99H1624.95V147.12Z" fill="url(#paint1_linear_152_2)"/>
<path d="M1773.1 195.16C1760.33 205.55 1742.81 213.34 1719.66 213.34C1670.76 213.34 1640.47 177.42 1640.47 133.28C1640.47 89.14 1670.76 53.22 1719.66 53.22C1738.48 53.22 1756.01 58.85 1768.78 69.23L1751.9 92.81C1747.19 89.35 1735.28 81.64 1719.44 82.21C1696.05 83.05 1671.68 101.68 1669.17 128.29C1666.3 158.72 1693.61 182.64 1719.44 184.33C1737.76 185.53 1751.61 175.31 1756.22 171.56L1773.1 195.14V195.16Z" fill="black"/>
<path d="M1875.87 210.09V148.42H1813.12V210.09H1781.75V56.47H1813.12V120.3H1875.87V56.47H1907.24V210.1H1875.87V210.09Z" fill="black"/>
<defs>
<linearGradient id="paint0_linear_152_2" x1="261" y1="60" x2="184" y2="164" gradientUnits="userSpaceOnUse">
<stop stop-color="#DD46B1"/>
<stop offset="1" stop-color="#8D4EEB"/>
</linearGradient>
<linearGradient id="paint1_linear_152_2" x1="1606" y1="58" x2="1528" y2="197" gradientUnits="userSpaceOnUse">
<stop stop-color="#DD46B1"/>
<stop offset="1" stop-color="#8D4EEB"/>
</linearGradient>
</defs>
</svg>
