<?xml version="1.0" encoding="utf-8"?>
<!-- Generator: Adobe Illustrator 16.0.0, SVG Export Plug-In . SVG Version: 6.00 Build 0)  -->
<!DOCTYPE svg PUBLIC "-//W3C//DTD SVG 1.1//EN" "http://www.w3.org/Graphics/SVG/1.1/DTD/svg11.dtd">
<svg version="1.1" id="Capa_1" xmlns="http://www.w3.org/2000/svg" xmlns:xlink="http://www.w3.org/1999/xlink" x="0px" y="0px"
	 width="1921px" height="263px" viewBox="0 0 1921 263" enable-background="new 0 0 1921 263" xml:space="preserve">
<path fill="#FFFFFF" d="M49.73,142.8l43.71-27.05c15.15-9.3,17.74-14.28,17.74-19.26c0-7.36-5.84-11.9-22.94-11.9H44.97v125.5H13.59
	V56.47h83.3c29.86,0,46.09,17.31,46.09,36.78c0,14.71-9.09,30.29-26.61,41.109L90.62,150.16l11.47,14.279
	c22.94,28.561,36.78,43.92,50.85,52.58c10.6,6.49,21.64,9.521,38.95,9.521c21.2,0,107.7-20.069,122.2-25.479l-4.48,24.439
	c-6.27,2.38-95.43,27.01-120.75,27.01c-20.77,0-37-3.68-51.71-13.199c-17.53-11.25-35.7-31.811-61.88-64.48l-25.53-32.02
	L49.73,142.8z"/>
<path fill="#DD46B1" d="M209.02,63.94l1.03-0.14l0.4-0.75C209.96,63.34,209.49,63.64,209.02,63.94z M267.11,63.05l0.4,0.75
	l1.03,0.14C268.07,63.64,267.6,63.34,267.11,63.05z"/>
<linearGradient id="SVGID_1_" gradientUnits="userSpaceOnUse" x1="361.1113" y1="94.9551" x2="284.1113" y2="-9.0449" gradientTransform="matrix(1 0 0 -1 -96 158)">
	<stop  offset="0" style="stop-color:#DD46B1"/>
	<stop  offset="1" style="stop-color:#8D4EEB"/>
</linearGradient>
<path fill="url(#SVGID_1_)" d="M331.76,72.37l-63.22-8.43l-1.03-0.14l-0.4-0.75L238.78,10.3l-28.33,52.75l-0.4,0.75l-1.03,0.14
	l-63.21,8.43l46.48,41.64l-10.97,58.801l57.46-27.761l57.46,27.761l-10.97-58.801L331.76,72.37z M238.78,122.25
	c-13.85,0-20.99-9.31-20.99-22.07c0-12.76,7.14-22.07,20.99-22.07c13.85,0,20.99,9.3,20.99,22.07S252.63,122.25,238.78,122.25z"/>
<path fill="#FFFFFF" d="M456.46,195.16c-12.77,10.39-30.29,18.18-53.44,18.18c-48.899,0-79.189-35.92-79.189-80.061
	c0-44.139,30.29-80.059,79.189-80.059c18.82,0,36.351,5.63,49.12,16.01l-16.88,23.58c-4.779-3.54-16.729-11.33-32.46-10.6
	c-23.69,1.1-49.07,21.22-49.61,50.101c-0.55,29.64,25.41,50.469,49.61,52.029c18.63,1.2,32.51-9.26,36.78-12.77l16.88,23.58V195.16z
	"/>
<path fill="#FFFFFF" d="M462.95,210.09V56.47h31.37V210.1h-31.37V210.09z M594.51,210.09h-35.27l-64.05-78.76l59.29-74.87h34.84
	l-59.07,74.87L594.51,210.09z"/>
<path fill="#FFFFFF" d="M652.93,171.141c8.66,4.539,35.7,15.359,64.261,15.359c34.399,0,43.92-15.8,43.92-29.641
	c0-43.06-92.82-30.719-92.82-90.229c0-32.02,27.05-46.74,56.91-46.74c26.18,0,52.8,11.25,52.8,38.51c0,7.36-1.95,13.2-8.22,22.29
	l-23.37-11.25c1.95-3.25,2.6-6.06,2.6-8.44c0-10.6-13.2-14.93-23.149-14.93c-11.03,0-28.351,5.41-28.351,19.91
	c0,33.54,93.91,22.72,93.91,88.5c0,32.67-23.37,58.85-74.65,58.85c-27.26,0-50.85-7.359-63.829-13.42v-28.78L652.93,171.141z"/>
<path fill="#FFFFFF" d="M788.16,56.47V84.6h43.92v125.49h31.37V84.6h76.819L893.1,210.09h32.021l15.58-41.109h61.89v41.109h31.37
	V56.47H788.16z M1002.59,140.85h-51.5l21.2-56.25h30.3V140.85z"/>
<path fill="#FFFFFF" d="M1094.98,142.8l43.709-27.05c15.15-9.3,17.74-14.28,17.74-19.26c0-7.36-5.84-11.9-22.939-11.9h-43.271v125.5
	h-31.37V56.47h83.301c29.859,0,46.09,17.31,46.09,36.78c0,14.71-9.09,30.29-26.61,41.109l-25.75,15.801l11.47,14.279
	c22.94,28.561,36.78,43.92,50.851,52.58c10.6,6.49,21.64,9.521,38.95,9.521c21.199,0,39.81-4.54,54.31-9.95l-7.14,28.131
	c-6.271,2.379-24.881,7.789-50.2,7.789c-20.771,0-37-3.68-51.71-13.199c-17.53-11.25-35.7-31.811-61.88-64.48l-25.53-32.02
	L1094.98,142.8z"/>
<path fill="#FFFFFF" d="M1193,56.47h119.01V84.6h-43.71v125.5h-31.37V84.6h-43.92V56.47H1193z"/>
<path fill="#FFFFFF" d="M1442.91,210.09V45.65h-80.061l9.301-28.13h172.88l9.3,28.13h-80.061v164.44H1442.9H1442.91z"/>
<linearGradient id="SVGID_2_" gradientUnits="userSpaceOnUse" x1="1708.2764" y1="96.4785" x2="1630.2764" y2="-42.5215" gradientTransform="matrix(1 0 0 -1 -96 158)">
	<stop  offset="0" style="stop-color:#DD46B1"/>
	<stop  offset="1" style="stop-color:#8D4EEB"/>
</linearGradient>
<path fill="url(#SVGID_2_)" d="M1627.47,195.16c-12.77,10.39-30.29,18.18-53.439,18.18c-48.9,0-79.19-35.92-79.19-80.061
	c0-44.139,30.29-80.059,79.19-80.059c18.819,0,36.35,5.63,49.12,16.01l-16.881,23.58c-4.859-3.61-16.83-11.4-32.459-10.6
	c-24.11,1.23-49.971,22.53-49.36,52.13c0.59,28.631,25.61,48.5,49.36,49.99c18.76,1.18,32.649-9.359,36.779-12.77l16.88,23.58
	V195.16z M1624.95,147.12h-74.24v-28.13h74.24V147.12z"/>
<path fill="#FFFFFF" d="M1773.1,195.16c-12.77,10.39-30.289,18.18-53.439,18.18c-48.9,0-79.19-35.92-79.19-80.061
	c0-44.139,30.29-80.059,79.19-80.059c18.82,0,36.35,5.63,49.12,16.01l-16.88,23.58c-4.711-3.46-16.62-11.17-32.461-10.6
	c-23.39,0.84-47.76,19.47-50.27,46.08c-2.87,30.431,24.44,54.351,50.27,56.04c18.32,1.199,32.171-9.02,36.78-12.77l16.88,23.58
	V195.16z"/>
<path fill="#FFFFFF" d="M1875.87,210.09v-61.67h-62.75v61.67h-31.37V56.47h31.37v63.83h62.75V56.47h31.37V210.1h-31.37V210.09z"/>
</svg>
