<?xml version="1.0" encoding="UTF-8"?>
<svg id="Layer_1" data-name="Layer 1" xmlns="http://www.w3.org/2000/svg" viewBox="0 0 1920.84 262.8">
  <defs>
    <style>
      .cls-1 {
        fill: #fff;
      }
    </style>
  </defs>
  <g id="RockStartTech">
    <g id="Rock">
      <path class="cls-1" d="m49.73,142.8l43.71-27.05c15.15-9.3,17.74-14.28,17.74-19.26,0-7.36-5.84-11.9-22.94-11.9h-43.27v125.5H13.59V56.47h83.3c29.86,0,46.09,17.31,46.09,36.78,0,14.71-9.09,30.29-26.61,41.11l-25.75,15.8,11.47,14.28c22.94,28.56,36.78,43.92,50.85,52.58,10.6,6.49,21.64,9.52,38.95,9.52,21.2,0,107.7-20.07,122.2-25.48l-4.48,24.44c-6.27,2.38-95.43,27.01-120.75,27.01-20.77,0-37-3.68-51.71-13.2-17.53-11.25-35.7-31.81-61.88-64.48l-25.53-32.02Z"/>
      <g>
        <path class="cls-1" d="m209.02,63.94l1.03-.14.4-.75c-.49.29-.96.59-1.43.89Zm58.09-.89l.4.75,1.03.14c-.47-.3-.94-.6-1.43-.89Z"/>
        <path class="cls-1" d="m331.76,72.37l-63.22-8.43-1.03-.14-.4-.75-28.33-52.75-28.33,52.75-.4.75-1.03.14-63.21,8.43,46.48,41.64-10.97,58.8,57.46-27.76,57.46,27.76-10.97-58.8,46.49-41.64Zm-92.98,49.88c-13.85,0-20.99-9.31-20.99-22.07s7.14-22.07,20.99-22.07,20.99,9.3,20.99,22.07-7.14,22.07-20.99,22.07Z"/>
      </g>
      <path class="cls-1" d="m456.46,195.16c-12.77,10.39-30.29,18.18-53.44,18.18-48.9,0-79.19-35.92-79.19-80.06s30.29-80.06,79.19-80.06c18.82,0,36.35,5.63,49.12,16.01l-16.88,23.58c-4.78-3.54-16.73-11.33-32.46-10.6-23.69,1.1-49.07,21.22-49.61,50.1-.55,29.64,25.41,50.47,49.61,52.03,18.63,1.2,32.51-9.26,36.78-12.77l16.88,23.58Z"/>
      <path class="cls-1" d="m462.95,210.09V56.47h31.37v153.63h-31.37Zm131.56,0h-35.27l-64.05-78.76,59.29-74.87h34.84l-59.07,74.87,64.26,78.76Z"/>
    </g>
    <g id="Start">
      <path class="cls-1" d="m652.93,171.14c8.66,4.54,35.7,15.36,64.26,15.36,34.4,0,43.92-15.8,43.92-29.64,0-43.06-92.82-30.72-92.82-90.23,0-32.02,27.05-46.74,56.91-46.74,26.18,0,52.8,11.25,52.8,38.51,0,7.36-1.95,13.2-8.22,22.29l-23.37-11.25c1.95-3.25,2.6-6.06,2.6-8.44,0-10.6-13.2-14.93-23.15-14.93-11.03,0-28.35,5.41-28.35,19.91,0,33.54,93.91,22.72,93.91,88.5,0,32.67-23.37,58.85-74.65,58.85-27.26,0-50.85-7.36-63.83-13.42v-28.78Z"/>
      <path class="cls-1" d="m788.16,56.47v28.13h43.92v125.49h31.37v-125.49h76.82l-47.17,125.49h32.02l15.58-41.11h61.89v41.11h31.37V56.47h-245.8Zm214.43,84.38h-51.5l21.2-56.25h30.3v56.25Z"/>
      <path class="cls-1" d="m1094.98,142.8l43.71-27.05c15.15-9.3,17.74-14.28,17.74-19.26,0-7.36-5.84-11.9-22.94-11.9h-43.27v125.5h-31.37V56.47h83.3c29.86,0,46.09,17.31,46.09,36.78,0,14.71-9.09,30.29-26.61,41.11l-25.75,15.8,11.47,14.28c22.94,28.56,36.78,43.92,50.85,52.58,10.6,6.49,21.64,9.52,38.95,9.52,21.2,0,39.81-4.54,54.31-9.95l-7.14,28.13c-6.27,2.38-24.88,7.79-50.2,7.79-20.77,0-37-3.68-51.71-13.2-17.53-11.25-35.7-31.81-61.88-64.48l-25.53-32.02Z"/>
      <path class="cls-1" d="m1193,56.47h119.01v28.13h-43.71v125.5h-31.37v-125.5h-43.92v-28.13Z"/>
    </g>
    <g>
      <path class="cls-1" d="m1442.91,210.09V45.65h-80.06l9.3-28.13h172.88l9.3,28.13h-80.06v164.44h-31.37Z"/>
      <path class="cls-1" d="m1627.47,195.16c-12.77,10.39-30.29,18.18-53.44,18.18-48.9,0-79.19-35.92-79.19-80.06s30.29-80.06,79.19-80.06c18.82,0,36.35,5.63,49.12,16.01l-16.88,23.58c-4.86-3.61-16.83-11.4-32.46-10.6-24.11,1.23-49.97,22.53-49.36,52.13.59,28.63,25.61,48.5,49.36,49.99,18.76,1.18,32.65-9.36,36.78-12.77l16.88,23.58Zm-2.52-48.04h-74.24v-28.13h74.24v28.13Z"/>
      <path class="cls-1" d="m1773.1,195.16c-12.77,10.39-30.29,18.18-53.44,18.18-48.9,0-79.19-35.92-79.19-80.06s30.29-80.06,79.19-80.06c18.82,0,36.35,5.63,49.12,16.01l-16.88,23.58c-4.71-3.46-16.62-11.17-32.46-10.6-23.39.84-47.76,19.47-50.27,46.08-2.87,30.43,24.44,54.35,50.27,56.04,18.32,1.2,32.17-9.02,36.78-12.77l16.88,23.58Z"/>
      <path class="cls-1" d="m1875.87,210.09v-61.67h-62.75v61.67h-31.37V56.47h31.37v63.83h62.75v-63.83h31.37v153.63h-31.37Z"/>
    </g>
  </g>
</svg>