<?xml version="1.0" encoding="UTF-8"?>
<svg id="Layer_1" data-name="Layer 1" xmlns="http://www.w3.org/2000/svg" viewBox="0 0 683 522.14">
  <defs>
    <style>
      .cls-1 {
        fill: #fff;
      }
    </style>
  </defs>
  <g id="Isotype">
    <path class="cls-1" d="m85.47,285.67l90.89-56.25c31.5-19.35,36.9-29.7,36.9-40.05,0-15.3-12.15-24.75-47.7-24.75h-89.99v260.98H10.32V106.13h173.24c62.1,0,95.84,36,95.84,76.49,0,30.6-18.9,63-55.35,85.5l-53.55,32.85,23.85,29.7c47.7,59.4,76.49,91.34,105.74,109.34,22.05,13.5,45,19.8,80.99,19.8,44.1,0,223.97-41.74,254.12-52.99l-9.32,50.82c-13.05,4.95-198.46,56.17-251.1,56.17-43.2,0-76.94-7.65-107.54-27.45-36.45-23.4-74.24-66.14-128.69-134.09l-53.1-66.6Z"/>
    <path class="cls-1" d="m672.68,139.15l-133.84-17.83-59.85-111.2-59.85,111.2-133.84,17.83,96.85,86.56-22.86,122.22,119.71-57.71,119.71,57.71-22.86-122.22,96.85-86.56Zm-194.05,103.77c-28.8,0-43.65-19.35-43.65-45.9s14.85-45.9,43.65-45.9,43.65,19.35,43.65,45.9-14.85,45.9-43.65,45.9Z"/>
  </g>
</svg>