<?xml version="1.0" encoding="UTF-8"?>
<svg id="Layer_1" data-name="Layer 1" xmlns="http://www.w3.org/2000/svg" viewBox="0 0 549.47 549.5">
  <defs>
    <style>
      .cls-1 {
        fill: #fff;
      }
    </style>
  </defs>
  <g id="RockStartTech">
    <g id="Rock">
      <path class="cls-1" d="m64.41,113.11l35.86-22.19c12.43-7.63,14.56-11.72,14.56-15.8,0-6.04-4.79-9.76-18.82-9.76h-35.51v102.97h-25.74V42.27h68.35c24.5,0,37.81,14.2,37.81,30.18,0,12.07-7.46,24.85-21.84,33.73l-21.13,12.96,9.41,11.72c18.82,23.43,30.18,36.04,41.72,43.14,8.7,5.33,17.75,7.81,31.96,7.81,17.4,0,88.37-16.47,100.26-20.91l-3.68,20.05c-5.15,1.95-78.3,22.16-99.07,22.16-17.04,0-30.36-3.02-42.43-10.83-14.38-9.23-29.29-26.1-50.77-52.9l-20.95-26.27Z"/>
      <g>
        <path class="cls-1" d="m295.81,55.32l-51.88-6.92-.84-.11-.33-.61-23.24-43.29-23.24,43.29-.33.61-.84.11-51.87,6.92,38.14,34.17-9,48.24,47.14-22.78,47.15,22.78-9.01-48.24,38.15-34.17Zm-76.29,40.92c-11.36,0-17.22-7.63-17.22-18.11s5.86-18.1,17.22-18.1,17.22,7.63,17.22,18.1-5.86,18.11-17.22,18.11Z"/>
        <path class="cls-1" d="m195.11,48.4l.84-.11.33-.61c-.4.23-.78.47-1.17.72Zm47.65-.72l.33.61.84.11c-.39-.25-.77-.49-1.17-.72Z"/>
      </g>
      <path class="cls-1" d="m398.12,156.07c-10.47,8.52-24.85,14.91-43.85,14.91-40.12,0-64.98-29.47-64.98-65.69s24.85-65.69,64.98-65.69c15.45,0,29.83,4.62,40.3,13.14l-13.85,19.35c-3.92-2.9-13.73-9.3-26.63-8.7-19.43.9-40.26,17.41-40.7,41.1-.45,24.32,20.85,41.41,40.7,42.69,15.29.98,26.68-7.6,30.18-10.47l13.85,19.35Z"/>
      <path class="cls-1" d="m403.45,168.32V42.27h25.74v126.05h-25.74Zm107.94,0h-28.94l-52.55-64.62,48.64-61.43h28.58l-48.47,61.43,52.73,64.62Z"/>
    </g>
    <g id="Start">
      <path class="cls-1" d="m4.36,317.69c7.1,3.73,29.29,12.61,52.73,12.61,28.23,0,36.04-12.96,36.04-24.32,0-35.33-76.16-25.21-76.16-74.03,0-26.27,22.19-38.35,46.69-38.35,21.48,0,43.32,9.23,43.32,31.6,0,6.04-1.6,10.83-6.75,18.29l-19.17-9.23c1.6-2.66,2.13-4.97,2.13-6.92,0-8.7-10.83-12.25-19-12.25-9.05,0-23.26,4.44-23.26,16.33,0,27.52,77.05,18.64,77.05,72.61,0,26.81-19.17,48.29-61.25,48.29-22.37,0-41.72-6.04-52.37-11.01v-23.61Z"/>
      <path class="cls-1" d="m115.31,223.6v23.08h36.04v102.96h25.74v-102.96h63.03l-38.7,102.96h26.27l12.78-33.73h50.78v33.73h25.74v-126.04H115.31Zm175.94,69.23h-42.26l17.4-46.15h24.86v46.15Z"/>
      <path class="cls-1" d="m367.06,294.43l35.86-22.19c12.43-7.63,14.56-11.72,14.56-15.8,0-6.04-4.79-9.76-18.82-9.76h-35.51v102.97h-25.74v-126.05h68.35c24.5,0,37.81,14.2,37.81,30.18,0,12.07-7.46,24.85-21.84,33.73l-21.13,12.96,9.41,11.72c18.82,23.43,30.18,36.04,41.72,43.14,8.7,5.33,17.75,7.81,31.96,7.81,17.4,0,32.67-3.73,44.56-8.17l-5.86,23.08c-5.15,1.95-20.42,6.39-41.19,6.39-17.04,0-30.36-3.02-42.43-10.83-14.38-9.23-29.29-26.1-50.77-52.9l-20.95-26.27Z"/>
      <path class="cls-1" d="m447.48,223.6h97.64v23.08h-35.86v102.97h-25.74v-102.97h-36.04v-23.08Z"/>
    </g>
    <g id="Tech">
      <path class="cls-1" d="m94.95,542.44v-134.92H29.27l7.63-23.08h141.85l7.63,23.08h-65.69v134.92h-25.74Z"/>
      <path class="cls-1" d="m246.39,530.19c-10.47,8.52-24.85,14.91-43.85,14.91-40.12,0-64.98-29.47-64.98-65.69s24.85-65.69,64.98-65.69c15.45,0,29.83,4.62,40.3,13.14l-13.85,19.35c-3.99-2.96-13.81-9.35-26.63-8.7-19.78,1.01-41,18.49-40.5,42.77.49,23.49,21.02,39.79,40.5,41.02,15.4.97,26.79-7.68,30.18-10.47l13.85,19.35Zm-2.07-39.41h-60.91v-23.08h60.91v23.08Z"/>
      <path class="cls-1" d="m365.87,530.19c-10.47,8.52-24.85,14.91-43.85,14.91-40.12,0-64.98-29.47-64.98-65.69s24.85-65.69,64.98-65.69c15.45,0,29.83,4.62,40.3,13.14l-13.85,19.35c-3.86-2.84-13.63-9.17-26.63-8.7-19.19.69-39.19,15.98-41.25,37.81-2.36,24.97,20.05,44.59,41.25,45.98,15.03.99,26.4-7.4,30.18-10.47l13.85,19.35Z"/>
      <path class="cls-1" d="m450.2,542.44v-50.6h-51.48v50.6h-25.74v-126.05h25.74v52.37h51.48v-52.37h25.74v126.05h-25.74Z"/>
    </g>
  </g>
</svg>