<svg width="28" height="28" viewBox="0 0 28 28" fill="none" xmlns="http://www.w3.org/2000/svg">
<path d="M3.50034 19.8333H24.5003C24.7977 19.8336 25.0837 19.9475 25.2999 20.1516C25.5162 20.3558 25.6463 20.6348 25.6637 20.9316C25.6811 21.2285 25.5845 21.5208 25.3937 21.7488C25.2028 21.9768 24.9321 22.1234 24.6368 22.1585L24.5003 22.1666H3.50034C3.20298 22.1663 2.91696 22.0525 2.70074 21.8483C2.48451 21.6442 2.35439 21.3652 2.33697 21.0684C2.31954 20.7715 2.41612 20.4792 2.60698 20.2512C2.79783 20.0231 3.06856 19.8766 3.36383 19.8415L3.50034 19.8333ZM3.50034 12.8333L24.5003 12.831C24.7977 12.8313 25.0837 12.9452 25.2999 13.1493C25.5162 13.3534 25.6463 13.6324 25.6637 13.9293C25.6811 14.2261 25.5845 14.5184 25.3937 14.7465C25.2028 14.9745 24.9321 15.121 24.6368 15.1561L24.5003 15.1643L3.50034 15.1666C3.20298 15.1663 2.91696 15.0525 2.70074 14.8483C2.48451 14.6442 2.35439 14.3652 2.33697 14.0684C2.31954 13.7715 2.41612 13.4792 2.60698 13.2512C2.79783 13.0231 3.06856 12.8766 3.36383 12.8415L3.50034 12.8333ZM3.50034 5.83331H24.5003C24.7977 5.83364 25.0837 5.94751 25.2999 6.15164C25.5162 6.35577 25.6463 6.63476 25.6637 6.93161C25.6811 7.22846 25.5845 7.52076 25.3937 7.74878C25.2028 7.97681 24.9321 8.12336 24.6368 8.15848L24.5003 8.16665H3.50034C3.20298 8.16632 2.91696 8.05245 2.70074 7.84832C2.48451 7.64419 2.35439 7.3652 2.33697 7.06835C2.31954 6.7715 2.41612 6.4792 2.60698 6.25118C2.79783 6.02315 3.06856 5.8766 3.36383 5.84148L3.50034 5.83331Z" fill="#FCFCFE"/>
</svg>
