<?xml version="1.0" encoding="utf-8"?>
<!-- Generator: Adobe Illustrator 16.0.0, SVG Export Plug-In . SVG Version: 6.00 Build 0)  -->
<!DOCTYPE svg PUBLIC "-//W3C//DTD SVG 1.1//EN" "http://www.w3.org/Graphics/SVG/1.1/DTD/svg11.dtd">
<svg version="1.1" id="Capa_1" xmlns="http://www.w3.org/2000/svg" xmlns:xlink="http://www.w3.org/1999/xlink" x="0px" y="0px"
	 width="28px" height="28px" viewBox="0 0 28 28" enable-background="new 0 0 28 28" xml:space="preserve">
<g>
	<path fill="#FCFCFE" d="M4.392,21.689l17.294-17.3c0.245-0.244,0.575-0.386,0.92-0.396c0.347-0.01,0.684,0.111,0.943,0.341
		c0.259,0.23,0.42,0.551,0.449,0.896c0.032,0.344-0.07,0.688-0.284,0.96l-0.105,0.12L6.313,23.61
		c-0.244,0.244-0.574,0.386-0.92,0.396c-0.346,0.012-0.683-0.112-0.942-0.342S4.03,23.114,4,22.768
		c-0.031-0.345,0.072-0.688,0.286-0.959L4.392,21.689z M4.392,21.689l17.294-17.3c0.245-0.244,0.575-0.386,0.92-0.396
		c0.347-0.01,0.684,0.111,0.943,0.341c0.259,0.23,0.42,0.551,0.449,0.896c0.032,0.344-0.07,0.688-0.284,0.96l-0.105,0.12
		L6.313,23.61c-0.244,0.244-0.574,0.386-0.92,0.396c-0.346,0.012-0.683-0.112-0.942-0.342S4.03,23.114,4,22.768
		c-0.031-0.345,0.072-0.688,0.286-0.959L4.392,21.689z"/>
	<path fill="#FCFCFE" d="M4.392,21.689l17.294-17.3c0.245-0.244,0.575-0.386,0.92-0.396c0.347-0.01,0.684,0.111,0.943,0.341
		c0.259,0.23,0.42,0.551,0.449,0.896c0.032,0.344-0.07,0.688-0.284,0.96l-0.105,0.12L6.313,23.61
		c-0.244,0.244-0.574,0.386-0.92,0.396c-0.346,0.012-0.683-0.112-0.942-0.342S4.03,23.114,4,22.768
		c-0.031-0.345,0.072-0.688,0.286-0.959L4.392,21.689z M4.392,21.689l17.294-17.3c0.245-0.244,0.575-0.386,0.92-0.396
		c0.347-0.01,0.684,0.111,0.943,0.341c0.259,0.23,0.42,0.551,0.449,0.896c0.032,0.344-0.07,0.688-0.284,0.96l-0.105,0.12
		L6.313,23.61c-0.244,0.244-0.574,0.386-0.92,0.396c-0.346,0.012-0.683-0.112-0.942-0.342S4.03,23.114,4,22.768
		c-0.031-0.345,0.072-0.688,0.286-0.959L4.392,21.689z"/>
	<path fill="#FCFCFE" d="M23.715,21.809c0.213,0.271,0.315,0.614,0.285,0.959c-0.029,0.347-0.191,0.667-0.45,0.896
		c-0.26,0.229-0.597,0.354-0.942,0.342c-0.346-0.01-0.676-0.151-0.921-0.396L4.391,6.312l-0.106-0.12
		C4.071,5.92,3.968,5.576,4.001,5.232C4.03,4.887,4.19,4.565,4.45,4.335c0.259-0.23,0.596-0.352,0.943-0.341
		c0.344,0.009,0.676,0.152,0.92,0.396l17.296,17.3L23.715,21.809z M23.715,21.809c0.213,0.271,0.315,0.614,0.285,0.959
		c-0.029,0.347-0.191,0.667-0.45,0.896c-0.26,0.229-0.597,0.354-0.942,0.342c-0.346-0.01-0.676-0.151-0.921-0.396L4.391,6.312
		l-0.106-0.12C4.071,5.92,3.968,5.576,4.001,5.232C4.03,4.887,4.19,4.565,4.45,4.335c0.259-0.23,0.596-0.352,0.943-0.341
		c0.344,0.009,0.676,0.152,0.92,0.396l17.296,17.3L23.715,21.809z"/>
</g>
</svg>
