<svg width="55" height="42" viewBox="0 0 55 42" fill="none" xmlns="http://www.w3.org/2000/svg">
<g clip-path="url(#clip0_80_517)">
<path d="M6.87501 22.9788L14.186 18.4542C16.7198 16.8977 17.1542 16.0651 17.1542 15.2326C17.1542 14.0019 16.1769 13.2418 13.3173 13.2418H6.07867V34.2345H0.830078V8.53693H14.7652C19.7604 8.53693 22.4744 11.4327 22.4744 14.6896C22.4744 17.1511 20.9541 19.7572 18.0221 21.5671L13.7147 24.2095L15.6331 26.5985C19.47 31.3765 21.7858 33.9457 24.1387 35.3936C25.9123 36.4795 27.7584 36.9863 30.6533 36.9863C34.2007 36.9863 48.6691 33.6288 51.0943 32.7239L50.3446 36.8118C49.2949 37.2099 34.3808 41.33 30.1466 41.33C26.6717 41.33 23.9577 40.7146 21.4963 39.1219C18.5643 37.2397 15.5245 33.8018 11.1447 28.336L6.8734 22.9788H6.87501Z" fill="#FCFCFE"/>
<path d="M54.1089 11.193L43.343 9.75875L38.5288 0.814026L33.7146 9.75875L22.9487 11.193L30.7392 18.1557L28.9004 27.9869L38.5296 23.3448L48.1589 27.9869L46.32 18.1557L54.1105 11.193H54.1089ZM38.4998 19.54C36.1832 19.54 34.9887 17.9836 34.9887 15.8479C34.9887 13.7123 36.1832 12.1558 38.4998 12.1558C40.8165 12.1558 42.011 13.7123 42.011 15.8479C42.011 17.9836 40.8165 19.54 38.4998 19.54Z" fill="url(#paint0_linear_80_517)"/>
</g>
<defs>
<linearGradient id="paint0_linear_80_517" x1="54.3528" y1="1.23527" x2="23.4705" y2="34.5882" gradientUnits="userSpaceOnUse">
<stop stop-color="#FF4298"/>
<stop offset="1" stop-color="#8D4EEB"/>
</linearGradient>
<clipPath id="clip0_80_517">
<rect width="54.9393" height="42" fill="white"/>
</clipPath>
</defs>
</svg>
