<?xml version="1.0" encoding="utf-8"?>
<!-- Generator: Adobe Illustrator 16.0.0, SVG Export Plug-In . SVG Version: 6.00 Build 0)  -->
<!DOCTYPE svg PUBLIC "-//W3C//DTD SVG 1.1//EN" "http://www.w3.org/Graphics/SVG/1.1/DTD/svg11.dtd">
<svg version="1.1" id="Capa_1" xmlns="http://www.w3.org/2000/svg" xmlns:xlink="http://www.w3.org/1999/xlink" x="0px" y="0px"
	 width="180px" height="182px" viewBox="-39.5 -41 180 182" enable-background="new -39.5 -41 180 182" xml:space="preserve">
<linearGradient id="SVGID_1_" gradientUnits="userSpaceOnUse" x1="216.1289" y1="47.9463" x2="70.1873" y2="-167.8302" gradientTransform="matrix(1 0 0 -1 -96 -5)">
	<stop  offset="0" style="stop-color:#FDEB37"/>
	<stop  offset="0.4532" style="stop-color:#575130;stop-opacity:0.7"/>
	<stop  offset="0.7502" style="stop-color:#13132D;stop-opacity:0.4"/>
	<stop  offset="1" style="stop-color:#13132D;stop-opacity:0"/>
</linearGradient>
<ellipse fill="url(#SVGID_1_)" cx="50.5" cy="50" rx="89.404" ry="90"/>
<g>
	<defs>
		
			<rect id="SVGID_2_" x="-6.227" y="-6.236" transform="matrix(-0.8917 -0.4527 0.4527 -0.8917 72.0193 117.3098)" width="112.547" height="112.545"/>
	</defs>
	<clipPath id="SVGID_3_">
		<use xlink:href="#SVGID_2_"  overflow="visible"/>
	</clipPath>
	<g clip-path="url(#SVGID_3_)">
		<path fill="#FCFCFE" d="M99.199,47.934l-2.437,4.799l-4.768-2.421l-2.419,4.766l4.766,2.422l-2.437,4.797l4.768,2.421l2.437-4.799
			l4.797,2.437l2.422-4.768l-4.799-2.437l2.437-4.797L99.199,47.934z"/>
		<path fill="#FCFCFE" d="M72.496,100.523l4.766,2.422l-2.419,4.766l-4.768-2.42L72.496,100.523z"/>
		<path fill="#FCFCFE" d="M65.366,90.869l-4.766-2.418l-2.437,4.797l4.768,2.42l-2.422,4.768l4.799,2.437L77.44,78.975l-4.799-2.437
			L65.366,90.869z"/>
		<path fill="#FCFCFE" d="M96.908,28.746l4.797,2.437l-2.435,4.798l-4.799-2.437L96.908,28.746z"/>
		<path fill="#FCFCFE" d="M70.297,69.351l4.768,2.422l-2.421,4.766l-4.768-2.421L70.297,69.351z"/>
		<path fill="#FCFCFE" d="M82.577,21.47l2.422-4.768l-4.767-2.42l2.436-4.798l-4.799-2.437l2.421-4.767L65.959-4.995l-2.421,4.767
			l-4.766-2.42l-2.437,4.798l-4.799-2.436l-2.42,4.767l-4.767-2.42L24.941,40.288l-4.767-2.42l-2.437,4.798l4.767,2.421
			l-7.275,14.332l-4.768-2.423l-2.421,4.768l9.534,4.841l26.686-52.56l33.461,16.988L51.036,83.594l9.564,4.857l2.421-4.768
			l-4.766-2.421l7.275-14.331l4.766,2.419l2.437-4.797l-4.768-2.421l19.41-38.228L82.577,21.47z"/>
		<path fill="#FCFCFE" d="M36.615,88.303l4.798,2.437l-4.855,9.563l-4.798-2.437L36.615,88.303z"/>
		<path fill="#FCFCFE" d="M17.575,66.604l33.461,16.989l-2.436,4.797L15.139,71.403L17.575,66.604z"/>
		<path fill="#FCFCFE" d="M46.401,57.218l4.767,2.421l-2.42,4.767l-4.768-2.42L46.401,57.218z"/>
		<path fill="#FCFCFE" d="M58.533,33.322l4.768,2.421l-2.421,4.766l-4.767-2.419L58.533,33.322z"/>
		<path fill="#FCFCFE" d="M27.081,83.462l4.767,2.419l-7.275,14.333l-4.768-2.42L27.081,83.462z"/>
		<path fill="#FCFCFE" d="M39.214,59.566l4.767,2.419l-2.42,4.767l-4.768-2.42L39.214,59.566z"/>
		<path fill="#FCFCFE" d="M44.07,50l4.767,2.421l-2.436,4.797l-4.768-2.419L44.07,50z"/>
		<path fill="#FCFCFE" d="M51.346,35.669l4.766,2.421l-2.435,4.798l-4.768-2.421L51.346,35.669z"/>
		<path fill="#FCFCFE" d="M56.203,26.104l4.767,2.421l-2.437,4.798l-4.767-2.421L56.203,26.104z"/>
		<path fill="#FCFCFE" d="M36.835,52.363l4.798,2.436l-2.419,4.768l-4.799-2.437L36.835,52.363z"/>
		<path fill="#FCFCFE" d="M48.97,28.467l4.797,2.435l-2.419,4.768l-4.799-2.437L48.97,28.467z"/>
		<path fill="#FCFCFE" d="M17.517,78.605l4.768,2.42l-4.857,9.566l-4.766-2.422L17.517,78.605z"/>
		<path fill="#FCFCFE" d="M12.939,40.229l4.798,2.437l-2.42,4.767l-4.799-2.436L12.939,40.229z"/>
		<path fill="#FCFCFE" d="M10.52,44.997l-4.766-2.421L-6.379,66.473l4.767,2.421l2.42-4.768l4.798,2.437l2.437-4.799l-4.799-2.437
			L10.52,44.997z"/>
		<path fill="#FCFCFE" d="M30.019-5.216l4.767,2.42L32.35,2.002l-4.768-2.42L30.019-5.216z"/>
		<path fill="#FCFCFE" d="M13.119,16.26l4.766,2.42l-2.436,4.799l-4.767-2.421L13.119,16.26z"/>
		<path fill="#FCFCFE" d="M22.814-2.839l4.767,2.421l-2.42,4.767l-4.767-2.421L22.814-2.839z"/>
		<path fill="#FCFCFE" d="M27.672-12.403l4.767,2.42l-2.42,4.768l-4.768-2.421L27.672-12.403z"/>
		<path fill="#FCFCFE" d="M-18.365,66.383l4.798,2.437l-2.437,4.799l-4.798-2.437L-18.365,66.383z"/>
		<path fill="#FCFCFE" d="M20.454-10.073l4.798,2.437l-2.437,4.798l-4.798-2.436L20.454-10.073z"/>
	</g>
</g>
</svg>
