<svg width="101" height="100" viewBox="0 0 101 100" fill="none" xmlns="http://www.w3.org/2000/svg">
<ellipse cx="50.4999" cy="50" rx="49.6689" ry="50" fill="url(#paint0_linear_109_36)"/>
<g clip-path="url(#clip0_109_36)">
<path d="M77.5544 48.8517L76.2011 51.5173L73.5529 50.1728L72.2083 52.8209L74.8565 54.1655L73.5031 56.8311L76.1513 58.1756L77.5047 55.51L80.1703 56.8634L81.5149 54.2152L78.8492 52.8618L80.2026 50.1962L77.5544 48.8517Z" fill="#FCFCFE"/>
<path d="M62.7197 78.0688L65.3679 79.4134L64.0234 82.0616L61.3752 80.717L62.7197 78.0688Z" fill="#FCFCFE"/>
<path d="M58.759 72.7053L56.1109 71.3608L54.7575 74.0264L57.4057 75.3709L56.0611 78.0191L58.7267 79.3725L65.4671 66.0967L62.8015 64.7433L58.759 72.7053Z" fill="#FCFCFE"/>
<path d="M76.2822 38.1918L78.9478 39.5452L77.5945 42.2108L74.9288 40.8574L76.2822 38.1918Z" fill="#FCFCFE"/>
<path d="M61.498 60.7506L64.1462 62.0951L62.8017 64.7433L60.1535 63.3988L61.498 60.7506Z" fill="#FCFCFE"/>
<path d="M68.321 34.1493L69.6656 31.5011L67.0174 30.1566L68.3708 27.491L65.7052 26.1376L67.0497 23.4894L59.0877 19.4469L57.7432 22.0951L55.095 20.7506L53.7416 23.4162L51.076 22.0628L49.7315 24.711L47.0833 23.3665L36.3004 44.6042L33.6522 43.2597L32.2988 45.9253L34.947 47.2698L30.9046 55.2318L28.2564 53.8873L26.9118 56.5355L32.2082 59.2246L47.0335 30.0248L65.6231 39.4631L50.7978 68.6629L56.1116 71.3608L57.4561 68.7126L54.8079 67.3681L58.8504 59.4061L61.4986 60.7506L62.852 58.085L60.2038 56.7405L70.9866 35.5027L68.321 34.1493Z" fill="#FCFCFE"/>
<path d="M42.7861 71.2787L45.4517 72.6321L42.7538 77.9459L40.0882 76.5925L42.7861 71.2787Z" fill="#FCFCFE"/>
<path d="M32.208 59.2245L50.7976 68.6629L49.4442 71.3285L30.8546 61.8902L32.208 59.2245Z" fill="#FCFCFE"/>
<path d="M48.2227 54.0102L50.8708 55.3547L49.5263 58.0029L46.8781 56.6584L48.2227 54.0102Z" fill="#FCFCFE"/>
<path d="M54.9629 40.7344L57.6111 42.079L56.2665 44.7272L53.6184 43.3826L54.9629 40.7344Z" fill="#FCFCFE"/>
<path d="M37.4893 68.5897L40.1374 69.9342L36.095 77.8962L33.4468 76.5516L37.4893 68.5897Z" fill="#FCFCFE"/>
<path d="M44.2295 55.3138L46.8777 56.6584L45.5331 59.3066L42.885 57.962L44.2295 55.3138Z" fill="#FCFCFE"/>
<path d="M46.9277 50.0001L49.5759 51.3446L48.2225 54.0102L45.5743 52.6657L46.9277 50.0001Z" fill="#FCFCFE"/>
<path d="M50.9697 42.0381L53.6179 43.3826L52.2645 46.0482L49.6163 44.7037L50.9697 42.0381Z" fill="#FCFCFE"/>
<path d="M53.668 36.7243L56.3162 38.0688L54.9628 40.7345L52.3146 39.3899L53.668 36.7243Z" fill="#FCFCFE"/>
<path d="M42.9082 51.3123L45.5738 52.6656L44.2293 55.3138L41.5637 53.9604L42.9082 51.3123Z" fill="#FCFCFE"/>
<path d="M49.6494 38.0365L52.315 39.3899L50.9705 42.0381L48.3049 40.6847L49.6494 38.0365Z" fill="#FCFCFE"/>
<path d="M32.1758 65.8917L34.824 67.2363L32.126 72.5501L29.4779 71.2055L32.1758 65.8917Z" fill="#FCFCFE"/>
<path d="M29.6328 44.5719L32.2984 45.9253L30.9539 48.5735L28.2883 47.2201L29.6328 44.5719Z" fill="#FCFCFE"/>
<path d="M28.2888 47.2201L25.6406 45.8755L18.9002 59.1513L21.5484 60.4959L22.893 57.8477L25.5586 59.2011L26.912 56.5355L24.2463 55.1821L28.2888 47.2201Z" fill="#FCFCFE"/>
<path d="M39.1211 19.324L41.7693 20.6685L40.4159 23.3341L37.7677 21.9896L39.1211 19.324Z" fill="#FCFCFE"/>
<path d="M29.7324 31.2552L32.3806 32.5998L31.0272 35.2654L28.379 33.9209L29.7324 31.2552Z" fill="#FCFCFE"/>
<path d="M35.1191 20.645L37.7673 21.9896L36.4228 24.6377L33.7746 23.2932L35.1191 20.645Z" fill="#FCFCFE"/>
<path d="M37.8174 15.3312L40.4656 16.6758L39.121 19.324L36.4728 17.9794L37.8174 15.3312Z" fill="#FCFCFE"/>
<path d="M12.2412 59.1016L14.9068 60.455L13.5534 63.1206L10.8878 61.7672L12.2412 59.1016Z" fill="#FCFCFE"/>
<path d="M33.8076 16.626L36.4732 17.9794L35.1198 20.645L32.4542 19.2916L33.8076 16.626Z" fill="#FCFCFE"/>
</g>
<defs>
<linearGradient id="paint0_linear_109_36" x1="94.7193" y1="-3.44827" x2="13.6397" y2="116.429" gradientUnits="userSpaceOnUse">
<stop stop-color="#FDEB37"/>
<stop offset="0.45317" stop-color="#575130"/>
<stop offset="0.750215" stop-color="#13132D"/>
<stop offset="1" stop-color="#13132D"/>
</linearGradient>
<clipPath id="clip0_109_36">
<rect width="62.5256" height="62.5256" fill="white" transform="translate(36.5254 7.99182) rotate(26.9178)"/>
</clipPath>
</defs>
</svg>
