<svg width="101" height="100" viewBox="0 0 101 100" fill="none" xmlns="http://www.w3.org/2000/svg">
<circle cx="50.5" cy="50" r="50" fill="url(#paint0_linear_109_69)"/>
<g clip-path="url(#clip0_109_69)">
<path d="M55.1236 24.7845V21.7869H52.1456V24.7845H49.1675V21.7869H46.1699V24.7845H19.3086V27.7626H22.2866V30.7602H25.2843V60.5996H28.2624V30.7602H73.0508V60.5996H76.0288V30.7602H79.0069V27.7626H82.0045V24.7845H55.1236Z" fill="#FCFCFE"/>
<path d="M70.0527 60.5996H73.0504V63.5973H70.0527V60.5996Z" fill="#FCFCFE"/>
<path d="M31.2402 63.5973V66.5753H49.1673V75.5291H52.1454V66.5753H70.0529V63.5973H31.2402Z" fill="#FCFCFE"/>
<path d="M37.2163 54.6435V51.6458H40.1944V48.6677H37.2163V33.7383H34.2383V57.6215H67.0753V54.6435H37.2163Z" fill="#FCFCFE"/>
<path d="M61.0996 36.7163H64.0973V39.714H61.0996V36.7163Z" fill="#FCFCFE"/>
<path d="M58.1211 39.714H61.0992V42.692H58.1211V39.714Z" fill="#FCFCFE"/>
<path d="M55.124 42.692H58.1217V45.6897H55.124V42.692Z" fill="#FCFCFE"/>
<path d="M52.1455 75.5291H55.1236V78.5267H52.1455V75.5291Z" fill="#FCFCFE"/>
<path d="M52.1455 45.6897H55.1236V48.6678H52.1455V45.6897Z" fill="#FCFCFE"/>
<path d="M49.168 78.5267H52.146V81.5048H49.168V78.5267Z" fill="#FCFCFE"/>
<path d="M49.168 48.6677H52.146V51.6458H49.168V48.6677Z" fill="#FCFCFE"/>
<path d="M49.168 18.8088H52.146V21.7869H49.168V18.8088Z" fill="#FCFCFE"/>
<path d="M46.1699 75.5291H49.1676V78.5267H46.1699V75.5291Z" fill="#FCFCFE"/>
<path d="M46.1699 45.6897H49.1676V48.6678H46.1699V45.6897Z" fill="#FCFCFE"/>
<path d="M43.1914 42.692H46.1695V45.6897H43.1914V42.692Z" fill="#FCFCFE"/>
<path d="M40.1943 45.6897H43.192V48.6678H40.1943V45.6897Z" fill="#FCFCFE"/>
<path d="M28.2627 60.5996H31.2408V63.5973H28.2627V60.5996Z" fill="#FCFCFE"/>
</g>
<defs>
<linearGradient id="paint0_linear_109_69" x1="30.594" y1="-20.8464" x2="54.8887" y2="128.527" gradientUnits="userSpaceOnUse">
<stop stop-color="#04DC9B"/>
<stop offset="0.750215" stop-color="#13132D"/>
<stop offset="1" stop-color="#13132D"/>
</linearGradient>
<clipPath id="clip0_109_69">
<rect width="62.6959" height="62.6959" fill="white" transform="translate(19.3086 18.8088)"/>
</clipPath>
</defs>
</svg>
