<svg width="101" height="100" viewBox="0 0 101 100" fill="none" xmlns="http://www.w3.org/2000/svg">
<circle cx="50.5" cy="50" r="50" fill="url(#paint0_linear_109_91)"/>
<g clip-path="url(#clip0_109_91)">
<path d="M79.0264 33.7382H82.0044V36.7162H79.0264V33.7382Z" fill="#FCFCFE"/>
<path d="M73.051 48.6676V51.6457H67.0948V54.6433H73.051V72.5508H61.1191V75.5289H73.051V78.5265H82.0047V48.6676H73.051Z" fill="#FCFCFE"/>
<path d="M76.0488 36.7162H79.0269V39.7138H76.0488V36.7162Z" fill="#FCFCFE"/>
<path d="M73.0508 33.7382H76.0484V36.7162H73.0508V33.7382Z" fill="#FCFCFE"/>
<path d="M70.0723 36.7162H73.0503V39.7138H70.0723V36.7162Z" fill="#FCFCFE"/>
<path d="M70.0723 21.8064H73.0503V24.7845H70.0723V21.8064Z" fill="#FCFCFE"/>
<path d="M67.0947 33.7382H70.0728V36.7162H67.0947V33.7382Z" fill="#FCFCFE"/>
<path d="M64.0967 48.6676H67.0943V51.6457H64.0967V48.6676Z" fill="#FCFCFE"/>
<path d="M61.1191 45.6896H64.0972V48.6676H61.1191V45.6896Z" fill="#FCFCFE"/>
<path d="M61.1188 63.5972H58.1212V69.5729H52.165V75.529H55.1431V72.5509H61.1188V63.5972Z" fill="#FCFCFE"/>
<path d="M55.1436 60.619H58.1216V63.5971H55.1436V60.619Z" fill="#FCFCFE"/>
<path d="M55.1436 24.7844H58.1216V27.7625H55.1436V24.7844Z" fill="#FCFCFE"/>
<path d="M52.165 57.6215H55.1431V60.6191H52.165V57.6215Z" fill="#FCFCFE"/>
<path d="M52.165 51.6458H55.1431V54.6434H52.165V51.6458Z" fill="#FCFCFE"/>
<path d="M49.168 42.6919H61.1194V45.6895H49.168V42.6919Z" fill="#FCFCFE"/>
<path d="M52.165 27.7625H55.1431V30.7601H52.165V27.7625Z" fill="#FCFCFE"/>
<path d="M52.165 21.8064H55.1431V24.7845H52.165V21.8064Z" fill="#FCFCFE"/>
<path d="M49.168 66.5752H52.1656V69.5728H49.168V66.5752Z" fill="#FCFCFE"/>
<path d="M49.168 54.6433H52.1656V57.6214H49.168V54.6433Z" fill="#FCFCFE"/>
<path d="M49.168 24.7844H52.1656V27.7625H49.168V24.7844Z" fill="#FCFCFE"/>
<path d="M46.1891 78.5266H37.2354V81.5046H49.1672V78.5266H52.1648V75.5289H46.1891V78.5266Z" fill="#FCFCFE"/>
<path d="M46.1895 45.6896H49.1675V48.6676H46.1895V45.6896Z" fill="#FCFCFE"/>
<path d="M43.1914 72.5509H46.1891V75.529H43.1914V72.5509Z" fill="#FCFCFE"/>
<path d="M43.1914 57.6215H49.1671V60.6191H43.1914V57.6215Z" fill="#FCFCFE"/>
<path d="M43.1914 48.6676H46.1891V51.6457H43.1914V48.6676Z" fill="#FCFCFE"/>
<path d="M40.2139 42.6919H46.1896V45.6895H40.2139V42.6919Z" fill="#FCFCFE"/>
<path d="M40.2139 69.5728H43.1919V72.5508H40.2139V69.5728Z" fill="#FCFCFE"/>
<path d="M40.2139 51.6458H43.1919V57.6215H40.2139V51.6458Z" fill="#FCFCFE"/>
<path d="M40.2139 30.7601H43.1919V33.7382H40.2139V30.7601Z" fill="#FCFCFE"/>
<path d="M37.2354 45.6896H40.2134V48.6676H37.2354V45.6896Z" fill="#FCFCFE"/>
<path d="M34.2383 75.5289H37.2359V78.5266H34.2383V75.5289Z" fill="#FCFCFE"/>
<path d="M34.2383 48.6676H37.2359V51.6457H34.2383V48.6676Z" fill="#FCFCFE"/>
<path d="M28.2819 72.5508V54.6433H34.2381V51.6457H28.2819V48.6676H19.3086V78.5265H28.2819V75.5289H34.2381V72.5508H28.2819Z" fill="#FCFCFE"/>
<path d="M31.2598 18.8087H34.2378V21.8064H31.2598V18.8087Z" fill="#FCFCFE"/>
<path d="M28.2823 42.6919V39.7139H31.2604V36.7162H28.2823V33.7382H25.2847V36.7162H22.3066V39.7139H25.2847V42.6919H28.2823Z" fill="#FCFCFE"/>
</g>
<defs>
<linearGradient id="paint0_linear_109_91" x1="92.3495" y1="-23.8245" x2="16.6442" y2="127.586" gradientUnits="userSpaceOnUse">
<stop stop-color="#8D4EEB"/>
<stop offset="0.750215" stop-color="#13132D"/>
<stop offset="1" stop-color="#13132D"/>
</linearGradient>
<clipPath id="clip0_109_91">
<rect width="62.6959" height="62.6959" fill="white" transform="translate(19.3086 18.8087)"/>
</clipPath>
</defs>
</svg>
