<svg width="101" height="100" viewBox="0 0 101 100" fill="none" xmlns="http://www.w3.org/2000/svg">
<circle cx="50.5" cy="50" r="50" fill="url(#paint0_linear_109_134)"/>
<g clip-path="url(#clip0_109_134)">
<path d="M79.0264 75.5289H82.0044V81.5046H79.0264V75.5289Z" fill="#FCFCFE"/>
<path d="M79.0264 39.7139H82.0044V42.6919H79.0264V39.7139Z" fill="#FCFCFE"/>
<path d="M76.0488 69.5728H79.0269V75.5289H76.0488V69.5728Z" fill="#FCFCFE"/>
<path d="M76.0488 36.7162H79.0269V39.7138H76.0488V36.7162Z" fill="#FCFCFE"/>
<path d="M73.0508 63.5972H76.0484V69.5729H73.0508V63.5972Z" fill="#FCFCFE"/>
<path d="M70.0723 42.6919H79.026V45.6895H70.0723V42.6919Z" fill="#FCFCFE"/>
<path d="M73.0508 33.7382H76.0484V36.7162H73.0508V33.7382Z" fill="#FCFCFE"/>
<path d="M70.0728 57.6214V51.6457H67.0947V45.6896H64.0971V39.7139H61.119V36.7162H58.1214V30.7601H70.0728V27.7625H67.0947V24.7844H64.0971V27.7625H58.1214V21.8064H61.119V18.8087H55.1433V36.7162H52.1653V39.7139H49.1676V45.6896H46.1896V51.6457H43.1919V57.6214H40.2139V63.5971H46.1896V66.5752H55.1433V63.5971H64.0971V60.6191H70.0728V63.5971H73.0509V57.6214H70.0728ZM52.1653 63.5971H49.1676V60.6191H52.1653V63.5971ZM61.119 60.6191H58.1214V57.6214H55.1433V54.6434H58.1214V57.6214H61.119V60.6191ZM61.119 48.6676H58.1214V42.6919H55.1433V39.7139H58.1214V42.6919H61.119V48.6676ZM67.0947 57.6214H64.0971V54.6434H67.0947V57.6214Z" fill="#FCFCFE"/>
<path d="M70.0723 36.7162H73.0503V39.7138H70.0723V36.7162Z" fill="#FCFCFE"/>
<path d="M67.0947 39.7139H70.0728V42.6919H67.0947V39.7139Z" fill="#FCFCFE"/>
<path d="M61.1191 21.8064H64.0972V24.7845H61.1191V21.8064Z" fill="#FCFCFE"/>
<path d="M37.2354 63.5972H40.2134V69.5729H37.2354V63.5972Z" fill="#FCFCFE"/>
<path d="M37.2354 30.7601H40.2134V33.7382H37.2354V30.7601Z" fill="#FCFCFE"/>
<path d="M34.2383 69.5728H37.2359V75.5289H34.2383V69.5728Z" fill="#FCFCFE"/>
<path d="M34.2383 27.7625H37.2359V30.7601H34.2383V27.7625Z" fill="#FCFCFE"/>
<path d="M31.2598 75.5289H34.2378V81.5046H31.2598V75.5289Z" fill="#FCFCFE"/>
<path d="M31.2598 66.5752H34.2378V69.5728H31.2598V66.5752Z" fill="#FCFCFE"/>
<path d="M22.3066 33.7382H37.2361V36.7162H22.3066V33.7382Z" fill="#FCFCFE"/>
<path d="M28.2822 24.7844H34.2383V27.7625H28.2822V24.7844Z" fill="#FCFCFE"/>
<path d="M28.2822 63.5972H31.2603V66.5752H28.2822V63.5972Z" fill="#FCFCFE"/>
<path d="M25.2842 66.5752H28.2818V69.5728H25.2842V66.5752Z" fill="#FCFCFE"/>
<path d="M22.3066 27.7625H28.2823V30.7601H22.3066V27.7625Z" fill="#FCFCFE"/>
<path d="M22.3066 69.5728H25.2847V75.5289H22.3066V69.5728Z" fill="#FCFCFE"/>
<path d="M19.3086 75.5289H22.3062V81.5046H19.3086V75.5289Z" fill="#FCFCFE"/>
<path d="M19.3086 30.7601H22.3062V33.7382H19.3086V30.7601Z" fill="#FCFCFE"/>
</g>
<defs>
<linearGradient id="paint0_linear_109_134" x1="30.594" y1="-20.8464" x2="54.8887" y2="128.527" gradientUnits="userSpaceOnUse">
<stop stop-color="#FF4298"/>
<stop offset="0.750215" stop-color="#13132D"/>
<stop offset="1" stop-color="#13132D"/>
</linearGradient>
<clipPath id="clip0_109_134">
<rect width="62.6959" height="62.6959" fill="white" transform="translate(19.3086 18.8087)"/>
</clipPath>
</defs>
</svg>
