<svg width="33" height="33" viewBox="0 0 33 33" fill="none" xmlns="http://www.w3.org/2000/svg">
<path d="M16.5 11.5928C15.1739 11.5928 13.9021 12.1196 12.9645 13.0572C12.0268 13.9949 11.5 15.2667 11.5 16.5928C11.5 17.9189 12.0268 19.1906 12.9645 20.1283C13.9021 21.066 15.1739 21.5928 16.5 21.5928C17.8261 21.5928 19.0979 21.066 20.0355 20.1283C20.9732 19.1906 21.5 17.9189 21.5 16.5928C21.5 15.2667 20.9732 13.9949 20.0355 13.0572C19.0979 12.1196 17.8261 11.5928 16.5 11.5928Z" fill="#FCFCFE"/>
<path fill-rule="evenodd" clip-rule="evenodd" d="M9.10353 4.00077C14.0195 3.45677 18.9806 3.45677 23.8965 4.00077C26.5822 4.30009 28.7474 6.41087 29.0628 9.10193C29.6457 14.0784 29.6457 19.1057 29.0628 24.0821C28.7474 26.7732 26.5822 28.8839 23.8979 29.1847C18.9815 29.7288 14.0199 29.7288 9.10353 29.1847C6.41788 28.8839 4.25267 26.7732 3.93729 24.0835C3.35424 19.1066 3.35424 14.0788 3.93729 9.10193C4.25267 6.41087 6.41788 4.30009 9.10353 4.00077ZM23.5713 8.12067C23.1962 8.12067 22.8365 8.26942 22.5712 8.5342C22.306 8.79898 22.157 9.1581 22.157 9.53256C22.157 9.90702 22.306 10.2661 22.5712 10.5309C22.8365 10.7957 23.1962 10.9444 23.5713 10.9444C23.9463 10.9444 24.3061 10.7957 24.5713 10.5309C24.8365 10.2661 24.9855 9.90702 24.9855 9.53256C24.9855 9.1581 24.8365 8.79898 24.5713 8.5342C24.3061 8.26942 23.9463 8.12067 23.5713 8.12067ZM9.78237 16.592C9.78237 14.8133 10.4901 13.1075 11.7499 11.8498C13.0097 10.5921 14.7184 9.88553 16.5 9.88553C18.2817 9.88553 19.9903 10.5921 21.2501 11.8498C22.5099 13.1075 23.2177 14.8133 23.2177 16.592C23.2177 18.3707 22.5099 20.0765 21.2501 21.3342C19.9903 22.5919 18.2817 23.2985 16.5 23.2985C14.7184 23.2985 13.0097 22.5919 11.7499 21.3342C10.4901 20.0765 9.78237 18.3707 9.78237 16.592Z" fill="#FCFCFE"/>
</svg>
