<svg width="33" height="33" viewBox="0 0 33 33" fill="none" xmlns="http://www.w3.org/2000/svg">
<path d="M24.7031 2.59277H9.29688C5.54306 2.59277 2.5 5.63584 2.5 9.38965V24.7959C2.5 28.5497 5.54306 31.5928 9.29688 31.5928H24.7031C28.4569 31.5928 31.5 28.5497 31.5 24.7959V9.38965C31.5 5.63584 28.4569 2.59277 24.7031 2.59277Z" fill="#313159"/>
<path d="M24.7031 2.59277H9.29688C5.54306 2.59277 2.5 5.63584 2.5 9.38965V24.7959C2.5 28.5497 5.54306 31.5928 9.29688 31.5928H24.7031C28.4569 31.5928 31.5 28.5497 31.5 24.7959V9.38965C31.5 5.63584 28.4569 2.59277 24.7031 2.59277Z" fill="#FCFCFE"/>
<path d="M25.1078 12.9479C25.1202 13.1277 25.1202 13.3075 25.1202 13.489C25.1202 19.0167 20.9121 25.392 13.2172 25.392V25.3886C10.944 25.3919 8.7179 24.7408 6.80469 23.5132C7.13524 23.553 7.46738 23.5728 7.80043 23.5736C9.68448 23.5751 11.5143 22.9431 12.996 21.7793C12.123 21.7628 11.277 21.4739 10.5763 20.9531C9.8756 20.4322 9.35516 19.7054 9.08776 18.8742C9.71452 18.9951 10.3607 18.9704 10.9764 18.8022C9.02477 18.4079 7.62065 16.6931 7.62065 14.7016V14.6486C8.20245 14.9727 8.85358 15.1522 9.51925 15.1722C7.68114 13.9437 7.11451 11.4983 8.22444 9.5863C9.27471 10.8787 10.5851 11.9358 12.0705 12.6887C13.5559 13.4417 15.1831 13.8738 16.8464 13.9569C16.6806 13.2431 16.705 12.4982 16.9174 11.7968C17.1298 11.0953 17.5226 10.462 18.0566 9.96001C19.7415 8.37612 22.3915 8.45734 23.9754 10.1414C24.9122 9.95642 25.8107 9.61296 26.632 9.12581C26.3197 10.0944 25.6661 10.9166 24.793 11.4395C25.6222 11.3418 26.4321 11.1198 27.1953 10.781C26.6339 11.6217 25.927 12.3555 25.1078 12.9479Z" fill="#313159"/>
</svg>
