<svg width="33" height="33" viewBox="0 0 33 33" fill="none" xmlns="http://www.w3.org/2000/svg">
<path d="M27.6996 2.19287H5.29961C3.53961 2.19287 2.09961 3.63287 2.09961 5.39287V27.7929C2.09961 29.5545 3.53961 30.9929 5.29961 30.9929H16.4996V19.7929H13.2996V15.8329H16.4996V12.5529C16.4996 9.09047 18.4388 6.65847 22.5252 6.65847L25.41 6.66167V10.8297H23.4948C21.9044 10.8297 21.2996 12.0233 21.2996 13.1305V15.8345H25.4084L24.4996 19.7929H21.2996V30.9929H27.6996C29.4596 30.9929 30.8996 29.5545 30.8996 27.7929V5.39287C30.8996 3.63287 29.4596 2.19287 27.6996 2.19287Z" fill="#FCFCFE"/>
</svg>
